<?xml version="1.0" encoding="UTF-8"?>
<svg xmlns="http://www.w3.org/2000/svg" xmlns:xlink="http://www.w3.org/1999/xlink" width="120px" height="20px" viewBox="0 0 178 29" version="1.1">
<g id="surface1">
<path style=" stroke:none;fill-rule:nonzero;fill:rgb(100%,32.156863%,75.686275%);fill-opacity:1;" d="M 20.742188 0.652344 C 15.011719 0.652344 9.035156 1.945312 3 3.621094 C 2.234375 3.777344 1.488281 4.28125 1.09375 4.902344 C 0.730469 5.488281 0.597656 6.074219 0.484375 6.691406 C -0.101562 9.984375 -0.03125 13.21875 0.0898438 16.800781 C 0.117188 17.621094 0.238281 18.59375 0.621094 19.183594 C 1.019531 19.78125 1.703125 20.160156 2.519531 20.285156 C 3.5625 20.4375 4.609375 20.566406 5.660156 20.675781 L 5.425781 27.140625 C 5.390625 27.65625 5.644531 28.085938 5.953125 28.332031 C 6.234375 28.542969 6.542969 28.636719 6.863281 28.660156 C 7.5 28.710938 8.25 28.4375 8.621094 27.726562 C 10.25 24.585938 11.269531 23.199219 13.304688 21.113281 C 18.613281 21.242188 23.25 20.949219 28.496094 20.558594 C 30.351562 20.511719 31.625 18.988281 31.960938 17.777344 C 32.96875 14.628906 33.125 10.742188 33.230469 6.816406 C 33.277344 5.261719 32.738281 3.734375 31.785156 2.925781 C 30.878906 2.1875 29.78125 1.921875 28.773438 1.648438 C 25.980469 1.011719 23.1875 0.671875 20.742188 0.652344 Z M 28.375 3.113281 C 29.382812 3.390625 30.269531 3.652344 30.828125 4.109375 C 31.761719 5.105469 31.730469 5.765625 31.71875 6.839844 C 31.613281 10.652344 31.429688 14.347656 30.574219 17.148438 C 30.203125 18.191406 29.5625 18.9375 28.34375 19.046875 C 23 19.445312 18.359375 19.75 12.988281 19.597656 C 12.773438 19.589844 12.570312 19.671875 12.421875 19.824219 C 10.164062 22.109375 9.007812 23.695312 7.289062 27.019531 C 7.246094 27.09375 7.160156 27.140625 7.054688 27.148438 C 6.980469 27.144531 6.953125 27.089844 6.949219 27.039062 L 7.179688 20.023438 C 7.195312 19.644531 6.882812 19.285156 6.507812 19.242188 C 5.253906 19.125 4.003906 18.96875 2.757812 18.78125 C 2.21875 18.699219 2.019531 18.550781 1.871094 18.332031 C 1.613281 17.71875 1.621094 17.339844 1.601562 16.75 C 1.480469 13.199219 1.421875 10.097656 1.964844 7.007812 C 2.015625 6.550781 2.1875 6.085938 2.367188 5.695312 C 2.667969 5.222656 3.125 5.15625 3.585938 5.027344 C 9.488281 3.394531 15.261719 2.171875 20.695312 2.167969 C 23.359375 2.265625 26.15625 2.53125 28.375 3.113281 Z M 7.992188 9.128906 C 7.179688 10.105469 7.261719 11.433594 7.890625 12.320312 C 8.21875 12.785156 8.730469 13.160156 9.351562 13.242188 C 10.160156 13.3125 10.675781 12.980469 11.230469 12.605469 C 12.230469 11.730469 12.332031 10.203125 11.570312 9.101562 C 11.183594 8.539062 10.5625 8.203125 9.925781 8.179688 C 9.054688 8.1875 8.464844 8.578125 7.992188 9.128906 Z M 16.785156 8.332031 C 15.976562 8.359375 15.320312 8.921875 14.921875 9.527344 C 14.464844 10.222656 14.199219 11.089844 14.566406 11.941406 C 15.28125 13.582031 17.738281 13.558594 18.722656 11.894531 C 19.171875 11.128906 19.058594 10.253906 18.722656 9.621094 C 18.386719 8.992188 17.878906 8.476562 17.140625 8.355469 C 17.023438 8.339844 16.90625 8.328125 16.785156 8.332031 Z M 23.925781 8.488281 C 23.671875 8.480469 23.414062 8.503906 23.171875 8.570312 C 22.199219 8.832031 21.367188 9.835938 21.496094 11.125 C 21.558594 11.773438 21.855469 12.40625 22.390625 12.839844 C 22.929688 13.277344 23.707031 13.472656 24.527344 13.304688 C 25.472656 13.109375 26.054688 12.347656 26.25 11.609375 C 26.445312 10.875 26.398438 10.125 25.945312 9.515625 C 25.464844 8.878906 24.722656 8.5 23.925781 8.488281 Z M 9.859375 9.695312 C 10.042969 9.695312 10.183594 9.753906 10.332031 9.964844 C 10.664062 10.445312 10.570312 11.167969 10.238281 11.457031 C 9.90625 11.746094 9.699219 11.773438 9.554688 11.753906 C 9.40625 11.734375 9.261719 11.632812 9.128906 11.445312 C 8.875 11.089844 8.800781 10.511719 9.132812 10.097656 C 9.308594 9.863281 9.632812 9.71875 9.859375 9.695312 Z M 16.894531 9.859375 C 16.921875 9.863281 17.238281 10.046875 17.386719 10.332031 C 17.539062 10.617188 17.566406 10.882812 17.425781 11.125 C 16.996094 11.851562 16.085938 11.65625 15.949219 11.339844 C 15.894531 11.21875 15.933594 10.734375 16.183594 10.359375 C 16.433594 9.980469 16.746094 9.835938 16.894531 9.859375 Z M 24.726562 10.417969 C 24.773438 10.476562 24.886719 10.890625 24.800781 11.222656 C 24.710938 11.550781 24.570312 11.753906 24.21875 11.824219 C 23.773438 11.917969 23.523438 11.824219 23.335938 11.667969 C 23.148438 11.515625 23.019531 11.257812 22.992188 10.984375 C 22.925781 10.300781 23.171875 10.140625 23.558594 10.035156 C 24.011719 9.925781 24.523438 10.121094 24.726562 10.417969 Z M 24.726562 10.417969 "/>
<path style=" stroke:none;fill-rule:nonzero;fill:rgb(0%,14.509804%,18.039216%);fill-opacity:1;" d="M 42.726562 3.714844 C 42.738281 3.523438 42.808594 3.347656 42.941406 3.195312 C 43.070312 3.039062 43.261719 2.957031 43.460938 2.964844 L 48.523438 2.964844 C 48.695312 2.964844 48.871094 3.035156 49.050781 3.175781 C 49.222656 3.300781 49.324219 3.5 49.324219 3.714844 L 49.324219 11.816406 L 57.792969 11.816406 L 57.792969 3.714844 C 57.792969 3.507812 57.867188 3.332031 58.007812 3.183594 C 58.148438 3.035156 58.332031 2.960938 58.5625 2.960938 L 63.554688 2.960938 C 63.78125 2.960938 63.980469 3.019531 64.152344 3.132812 C 64.324219 3.246094 64.40625 3.429688 64.40625 3.679688 L 64.40625 27.585938 C 64.40625 27.835938 64.332031 28.027344 64.183594 28.152344 C 64.039062 28.277344 63.84375 28.339844 63.605469 28.339844 L 58.5625 28.339844 C 58.335938 28.339844 58.148438 28.277344 58.007812 28.152344 C 57.867188 28.027344 57.792969 27.839844 57.792969 27.585938 L 57.792969 17.882812 L 49.324219 17.882812 L 49.324219 27.585938 C 49.324219 27.828125 49.246094 28.011719 49.09375 28.144531 C 48.941406 28.273438 48.734375 28.339844 48.472656 28.339844 L 43.460938 28.339844 C 42.984375 28.339844 42.738281 28.117188 42.726562 27.671875 Z M 89.359375 28.050781 C 89.210938 28.175781 89.054688 28.253906 88.890625 28.289062 C 88.738281 28.320312 88.582031 28.339844 88.421875 28.339844 L 85.847656 28.339844 C 85.644531 28.339844 85.46875 28.300781 85.320312 28.226562 C 85.171875 28.152344 85.046875 28.054688 84.945312 27.929688 C 84.839844 27.800781 84.753906 27.65625 84.691406 27.5 C 84.621094 27.339844 84.566406 27.175781 84.519531 27.007812 L 83.992188 24.820312 C 83.820312 25.171875 83.574219 25.574219 83.25 26.023438 C 82.898438 26.5 82.484375 26.925781 82.015625 27.289062 C 81.515625 27.679688 80.917969 28.011719 80.222656 28.28125 C 79.53125 28.546875 78.734375 28.679688 77.839844 28.679688 C 76.542969 28.679688 75.367188 28.429688 74.308594 27.929688 C 73.273438 27.445312 72.355469 26.746094 71.609375 25.878906 C 70.863281 25.011719 70.289062 24 69.878906 22.84375 C 69.46875 21.6875 69.265625 20.457031 69.265625 19.144531 L 69.265625 7.953125 C 69.265625 7.519531 69.359375 7.191406 69.546875 6.96875 C 69.734375 6.75 70.03125 6.636719 70.441406 6.636719 L 74.378906 6.636719 C 74.867188 6.636719 75.203125 6.71875 75.382812 6.886719 C 75.566406 7.050781 75.65625 7.371094 75.65625 7.851562 L 75.65625 18.972656 C 75.65625 19.464844 75.769531 19.929688 75.988281 20.367188 C 76.210938 20.804688 76.503906 21.191406 76.867188 21.527344 C 77.230469 21.867188 77.640625 22.128906 78.101562 22.324219 C 78.5625 22.515625 79.03125 22.613281 79.507812 22.613281 C 79.917969 22.613281 80.339844 22.515625 80.777344 22.324219 C 81.21875 22.128906 81.628906 21.867188 81.988281 21.546875 C 82.359375 21.222656 82.660156 20.839844 82.902344 20.402344 C 83.140625 19.960938 83.257812 19.5 83.257812 19.007812 L 83.257812 7.902344 C 83.257812 7.707031 83.296875 7.515625 83.371094 7.320312 C 83.445312 7.128906 83.554688 6.980469 83.703125 6.875 C 83.847656 6.785156 83.988281 6.722656 84.117188 6.6875 C 84.25 6.65625 84.402344 6.636719 84.570312 6.636719 L 88.421875 6.636719 C 88.910156 6.636719 89.261719 6.757812 89.480469 6.996094 C 89.695312 7.234375 89.804688 7.554688 89.804688 7.953125 L 89.804688 27.074219 C 89.804688 27.289062 89.753906 27.492188 89.660156 27.671875 C 89.5625 27.855469 89.429688 27.996094 89.257812 28.097656 Z M 109.148438 25.691406 C 108.839844 26 108.503906 26.328125 108.132812 26.679688 C 107.765625 27.035156 107.359375 27.367188 106.914062 27.671875 C 106.46875 27.980469 105.988281 28.238281 105.484375 28.433594 C 104.957031 28.636719 104.394531 28.738281 103.832031 28.730469 C 102.285156 28.730469 100.863281 28.441406 99.5625 27.859375 C 98.292969 27.300781 97.148438 26.492188 96.203125 25.476562 C 95.265625 24.46875 94.53125 23.28125 94.003906 21.914062 C 93.476562 20.546875 93.210938 19.078125 93.210938 17.503906 C 93.210938 15.921875 93.476562 14.449219 94.003906 13.089844 C 94.53125 11.726562 95.265625 10.542969 96.203125 9.535156 C 97.148438 8.519531 98.292969 7.710938 99.5625 7.160156 C 100.863281 6.582031 102.285156 6.296875 103.832031 6.296875 C 104.457031 6.296875 105.027344 6.386719 105.542969 6.570312 C 106.042969 6.742188 106.519531 6.976562 106.957031 7.269531 C 107.382812 7.554688 107.777344 7.875 108.132812 8.234375 C 108.492188 8.59375 108.828125 8.945312 109.148438 9.285156 L 109.148438 1.476562 C 109.148438 1.113281 109.257812 0.804688 109.480469 0.554688 C 109.703125 0.300781 110.035156 0.175781 110.476562 0.175781 L 114.3125 0.175781 C 114.460938 0.175781 114.617188 0.207031 114.78125 0.269531 C 114.945312 0.335938 115.097656 0.421875 115.234375 0.535156 C 115.371094 0.652344 115.480469 0.789062 115.566406 0.945312 C 115.648438 1.105469 115.691406 1.28125 115.691406 1.476562 L 115.691406 27.023438 C 115.691406 27.902344 115.234375 28.339844 114.3125 28.339844 L 110.972656 28.339844 C 110.746094 28.339844 110.570312 28.308594 110.445312 28.253906 C 110.320312 28.199219 110.210938 28.113281 110.128906 28.003906 C 110.03125 27.878906 109.957031 27.742188 109.898438 27.597656 C 109.816406 27.402344 109.734375 27.210938 109.644531 27.023438 Z M 99.347656 17.503906 C 99.34375 18.222656 99.460938 18.9375 99.695312 19.617188 C 99.929688 20.269531 100.261719 20.835938 100.695312 21.316406 C 101.132812 21.796875 101.660156 22.183594 102.253906 22.453125 C 102.863281 22.730469 103.535156 22.871094 104.273438 22.871094 C 105 22.871094 105.683594 22.738281 106.328125 22.476562 C 106.953125 22.226562 107.519531 21.859375 108.007812 21.390625 C 108.488281 20.925781 108.878906 20.371094 109.15625 19.761719 C 109.445312 19.132812 109.609375 18.460938 109.644531 17.746094 L 109.644531 17.503906 C 109.644531 16.789062 109.507812 16.082031 109.234375 15.421875 C 108.96875 14.773438 108.585938 14.179688 108.101562 13.675781 C 107.613281 13.175781 107.035156 12.769531 106.394531 12.488281 C 105.726562 12.195312 105.003906 12.046875 104.273438 12.054688 C 103.535156 12.054688 102.863281 12.199219 102.253906 12.488281 C 101.644531 12.78125 101.125 13.175781 100.695312 13.675781 C 100.257812 14.191406 99.917969 14.78125 99.695312 15.421875 C 99.464844 16.089844 99.34375 16.796875 99.347656 17.503906 Z M 135.480469 25.691406 C 135.175781 26 134.835938 26.328125 134.46875 26.679688 C 134.097656 27.035156 133.691406 27.367188 133.25 27.671875 C 132.804688 27.980469 132.324219 28.238281 131.816406 28.433594 C 131.289062 28.636719 130.726562 28.738281 130.164062 28.730469 C 128.617188 28.730469 127.195312 28.441406 125.894531 27.859375 C 124.625 27.300781 123.484375 26.492188 122.535156 25.476562 C 121.597656 24.46875 120.867188 23.28125 120.335938 21.914062 C 119.808594 20.546875 119.542969 19.078125 119.542969 17.503906 C 119.542969 15.921875 119.808594 14.449219 120.335938 13.089844 C 120.867188 11.726562 121.597656 10.542969 122.535156 9.535156 C 123.480469 8.519531 124.625 7.710938 125.894531 7.160156 C 127.195312 6.582031 128.617188 6.296875 130.164062 6.296875 C 130.789062 6.296875 131.359375 6.386719 131.875 6.570312 C 132.375 6.742188 132.851562 6.976562 133.289062 7.269531 C 133.71875 7.554688 134.109375 7.875 134.46875 8.234375 C 134.824219 8.59375 135.164062 8.945312 135.480469 9.285156 L 135.480469 1.476562 C 135.480469 1.113281 135.59375 0.804688 135.8125 0.554688 C 136.035156 0.300781 136.367188 0.175781 136.8125 0.175781 L 140.644531 0.175781 C 140.792969 0.175781 140.949219 0.207031 141.113281 0.269531 C 141.28125 0.335938 141.429688 0.421875 141.566406 0.535156 C 141.703125 0.652344 141.8125 0.789062 141.898438 0.945312 C 141.984375 1.105469 142.027344 1.28125 142.027344 1.476562 L 142.027344 27.023438 C 142.027344 27.902344 141.566406 28.339844 140.644531 28.339844 L 137.304688 28.339844 C 137.078125 28.339844 136.902344 28.308594 136.777344 28.253906 C 136.652344 28.199219 136.546875 28.113281 136.460938 28.003906 C 136.367188 27.878906 136.289062 27.742188 136.230469 27.597656 C 136.152344 27.402344 136.066406 27.210938 135.976562 27.023438 Z M 125.679688 17.503906 C 125.675781 18.222656 125.792969 18.9375 126.03125 19.617188 C 126.261719 20.269531 126.597656 20.835938 127.027344 21.316406 C 127.464844 21.796875 127.996094 22.183594 128.585938 22.453125 C 129.195312 22.730469 129.867188 22.871094 130.605469 22.871094 C 131.332031 22.871094 132.019531 22.738281 132.660156 22.476562 C 133.285156 22.226562 133.855469 21.859375 134.339844 21.390625 C 134.820312 20.925781 135.210938 20.371094 135.488281 19.761719 C 135.777344 19.132812 135.941406 18.460938 135.976562 17.746094 L 135.976562 17.503906 C 135.976562 16.789062 135.839844 16.082031 135.566406 15.421875 C 135.300781 14.773438 134.917969 14.179688 134.433594 13.675781 C 133.949219 13.175781 133.367188 12.769531 132.730469 12.488281 C 132.058594 12.195312 131.335938 12.046875 130.605469 12.054688 C 129.867188 12.054688 129.195312 12.199219 128.585938 12.488281 C 127.980469 12.78125 127.460938 13.175781 127.027344 13.675781 C 126.589844 14.191406 126.25 14.78125 126.03125 15.421875 C 125.796875 16.089844 125.679688 16.796875 125.679688 17.503906 Z M 146.5625 1.492188 C 146.5625 1.128906 146.652344 0.820312 146.832031 0.570312 C 147.015625 0.320312 147.328125 0.195312 147.769531 0.195312 L 151.945312 0.195312 C 152.058594 0.195312 152.179688 0.226562 152.304688 0.289062 C 152.433594 0.355469 152.554688 0.445312 152.652344 0.554688 C 152.761719 0.667969 152.851562 0.804688 152.925781 0.964844 C 153 1.125 153.039062 1.300781 153.039062 1.492188 L 153.039062 27.023438 C 153.039062 27.457031 152.914062 27.785156 152.671875 28.003906 C 152.425781 28.226562 152.113281 28.339844 151.726562 28.339844 L 147.769531 28.339844 C 147.328125 28.339844 147.015625 28.226562 146.832031 28.003906 C 146.652344 27.785156 146.5625 27.457031 146.5625 27.023438 Z M 175.261719 25.742188 C 174.273438 26.65625 173.132812 27.390625 171.886719 27.902344 C 170.628906 28.421875 169.277344 28.6875 167.917969 28.679688 C 166.359375 28.679688 164.890625 28.394531 163.503906 27.824219 C 162.148438 27.277344 160.910156 26.472656 159.855469 25.460938 C 158.804688 24.445312 157.960938 23.234375 157.367188 21.898438 C 156.753906 20.53125 156.445312 19.042969 156.445312 17.4375 C 156.445312 16.433594 156.566406 15.464844 156.8125 14.523438 C 157.050781 13.601562 157.398438 12.714844 157.851562 11.882812 C 158.300781 11.0625 158.851562 10.300781 159.488281 9.617188 C 160.125 8.933594 160.851562 8.339844 161.644531 7.851562 C 162.453125 7.355469 163.324219 6.96875 164.234375 6.703125 C 165.195312 6.429688 166.1875 6.289062 167.183594 6.296875 C 168.125 6.296875 169.042969 6.421875 169.925781 6.671875 C 170.8125 6.921875 171.648438 7.273438 172.425781 7.730469 C 173.203125 8.1875 173.914062 8.734375 174.5625 9.371094 C 175.203125 10 175.765625 10.703125 176.234375 11.464844 C 176.699219 12.222656 177.0625 13.039062 177.316406 13.890625 C 177.570312 14.75 177.699219 15.636719 177.699219 16.546875 C 177.699219 17.140625 177.691406 17.625 177.675781 18 C 177.65625 18.375 177.570312 18.675781 177.410156 18.898438 C 177.25 19.121094 176.988281 19.273438 176.617188 19.359375 C 176.25 19.445312 175.707031 19.488281 174.992188 19.488281 L 162.71875 19.488281 C 162.832031 20.214844 163.0625 20.824219 163.410156 21.316406 C 163.730469 21.78125 164.136719 22.179688 164.609375 22.484375 C 165.066406 22.777344 165.546875 22.984375 166.058594 23.109375 C 166.53125 23.230469 167.019531 23.292969 167.507812 23.296875 C 167.917969 23.296875 168.335938 23.253906 168.769531 23.171875 C 169.195312 23.085938 169.613281 22.972656 170.023438 22.828125 C 170.40625 22.695312 170.773438 22.527344 171.128906 22.332031 C 171.464844 22.144531 171.734375 21.949219 171.9375 21.742188 C 172.121094 21.59375 172.277344 21.484375 172.40625 21.410156 C 172.539062 21.335938 172.679688 21.296875 172.824219 21.296875 C 172.972656 21.296875 173.125 21.351562 173.277344 21.453125 C 173.464844 21.582031 173.636719 21.730469 173.796875 21.898438 L 175.605469 23.949219 C 175.726562 24.097656 175.808594 24.230469 175.84375 24.347656 C 175.875 24.46875 175.894531 24.589844 175.894531 24.714844 C 175.894531 24.945312 175.832031 25.140625 175.707031 25.304688 C 175.578125 25.472656 175.429688 25.617188 175.261719 25.742188 Z M 167.066406 11.507812 C 166.621094 11.507812 166.191406 11.59375 165.777344 11.773438 C 165.355469 11.953125 164.964844 12.191406 164.609375 12.480469 C 164.246094 12.777344 163.921875 13.113281 163.628906 13.488281 C 163.351562 13.84375 163.117188 14.226562 162.921875 14.632812 L 171.632812 14.632812 C 171.402344 14.207031 171.144531 13.792969 170.855469 13.402344 C 170.582031 13.03125 170.261719 12.699219 169.902344 12.414062 C 169.535156 12.121094 169.117188 11.898438 168.675781 11.746094 C 168.214844 11.585938 167.679688 11.507812 167.066406 11.507812 Z M 167.066406 11.507812 "/>
</g>
</svg>
